<svg xmlns="http://www.w3.org/2000/svg" width="860" height="330" viewBox="0 0 860 330" role="img" aria-label="Alerts by triage priority">
<style>text{font-family:system-ui,-apple-system,'Segoe UI',Helvetica,Arial,sans-serif}</style>
<rect x="0.5" y="0.5" width="859" height="329" rx="12" fill="#fcfcfb" stroke="#dcdbd4"/>
<text x="24" y="36" font-size="17" font-weight="700" fill="#0b0b0b">Alerts by triage priority</text>
<text x="24" y="58" font-size="12.5" fill="#6f6e69">Set in code from detection type, risk level and account privilege, before any investigation</text>
<line x1="56" x2="836" y1="278.0" y2="278.0" stroke="#c3c2b7"/>
<text x="48" y="282.0" font-size="11" fill="#6f6e69" text-anchor="end">0</text>
<line x1="56" x2="836" y1="240.0" y2="240.0" stroke="#e7e6df"/>
<text x="48" y="244.0" font-size="11" fill="#6f6e69" text-anchor="end">2</text>
<line x1="56" x2="836" y1="202.0" y2="202.0" stroke="#e7e6df"/>
<text x="48" y="206.0" font-size="11" fill="#6f6e69" text-anchor="end">4</text>
<line x1="56" x2="836" y1="164.0" y2="164.0" stroke="#e7e6df"/>
<text x="48" y="168.0" font-size="11" fill="#6f6e69" text-anchor="end">6</text>
<line x1="56" x2="836" y1="126.0" y2="126.0" stroke="#e7e6df"/>
<text x="48" y="130.0" font-size="11" fill="#6f6e69" text-anchor="end">8</text>
<line x1="56" x2="836" y1="88.0" y2="88.0" stroke="#e7e6df"/>
<text x="48" y="92.0" font-size="11" fill="#6f6e69" text-anchor="end">10</text>
<path d="M102.0,278.0 V111.0 Q102.0,107.0 106.0,107.0 H162.0 Q166.0,107.0 166.0,111.0 V278.0 Z" fill="#d03b3b"><title>P1
15 minutes: 9</title></path>
<text x="134.0" y="101.0" font-size="12" font-weight="700" fill="#0b0b0b" text-anchor="middle">9</text>
<text x="134.0" y="296.0" font-size="11.5" fill="#52514e" text-anchor="middle">P1</text>
<text x="134.0" y="310.0" font-size="11.5" fill="#52514e" text-anchor="middle">15 minutes</text>
<path d="M258.0,278.0 V263.0 Q258.0,259.0 262.0,259.0 H318.0 Q322.0,259.0 322.0,263.0 V278.0 Z" fill="#ec835a"><title>P2
1 hour: 1</title></path>
<text x="290.0" y="253.0" font-size="12" font-weight="700" fill="#0b0b0b" text-anchor="middle">1</text>
<text x="290.0" y="296.0" font-size="11.5" fill="#52514e" text-anchor="middle">P2</text>
<text x="290.0" y="310.0" font-size="11.5" fill="#52514e" text-anchor="middle">1 hour</text>
<path d="M414.0,278.0 V225.0 Q414.0,221.0 418.0,221.0 H474.0 Q478.0,221.0 478.0,225.0 V278.0 Z" fill="#b87a00"><title>P3
4 hours: 3</title></path>
<text x="446.0" y="215.0" font-size="12" font-weight="700" fill="#0b0b0b" text-anchor="middle">3</text>
<text x="446.0" y="296.0" font-size="11.5" fill="#52514e" text-anchor="middle">P3</text>
<text x="446.0" y="310.0" font-size="11.5" fill="#52514e" text-anchor="middle">4 hours</text>
<path d="M570.0,278.0 V278.0 Q570.0,278.0 570.0,278.0 H634.0 Q634.0,278.0 634.0,278.0 V278.0 Z" fill="#2a78d6"><title>P4
next day: 0</title></path>
<text x="602.0" y="272.0" font-size="12" font-weight="700" fill="#0b0b0b" text-anchor="middle">0</text>
<text x="602.0" y="296.0" font-size="11.5" fill="#52514e" text-anchor="middle">P4</text>
<text x="602.0" y="310.0" font-size="11.5" fill="#52514e" text-anchor="middle">next day</text>
<path d="M726.0,278.0 V206.0 Q726.0,202.0 730.0,202.0 H786.0 Q790.0,202.0 790.0,206.0 V278.0 Z" fill="#4a3aa7"><title>Closed
no action: 4</title></path>
<text x="758.0" y="196.0" font-size="12" font-weight="700" fill="#0b0b0b" text-anchor="middle">4</text>
<text x="758.0" y="296.0" font-size="11.5" fill="#52514e" text-anchor="middle">Closed</text>
<text x="758.0" y="310.0" font-size="11.5" fill="#52514e" text-anchor="middle">no action</text>
</svg>